<?xml version="1.0" encoding="UTF-8"?>
<svg version="1.1" xmlns="http://www.w3.org/2000/svg" width="512" height="497">
<path d="M0 0 C2.04110944 0.98037266 4.04665835 2.03626886 6.0234375 3.140625 C6.59725159 3.4588472 7.17106567 3.7770694 7.76226807 4.10493469 C9.63689073 5.14678152 11.50592393 6.19824017 13.375 7.25 C14.68769141 7.98222193 16.0006833 8.7139054 17.31396484 9.44506836 C21.2149274 11.62009775 25.10862639 13.80786998 29 16 C30.04736328 16.58990723 31.09472656 17.17981445 32.17382812 17.78759766 C35.91639423 19.89861132 39.6569152 22.01316181 43.39404297 24.13378906 C50.73863553 28.29960817 58.11469863 32.40684716 65.5 36.5 C74.7916376 41.65027078 84.05566278 46.84580878 93.296875 52.0859375 C100.67560171 56.26449821 108.08346823 60.38896955 115.5 64.5 C124.83845801 69.67694073 134.15190176 74.89508423 143.44189453 80.15844727 C153.55518317 85.88662934 163.69866584 91.56051503 173.84277344 97.23388672 C179.06293711 100.15398137 184.28138679 103.07713566 189.5 106 C191.58332501 107.16668154 193.66665834 108.3333482 195.75 109.5 C199.91666667 111.83333333 204.08333333 114.16666667 208.25 116.5 C209.28302246 117.0784668 210.31604492 117.65693359 211.38037109 118.25292969 C213.44588976 119.40967187 215.51132069 120.56657071 217.57666016 121.72363281 C222.46672854 124.46293729 227.35769153 127.20060397 232.25177002 129.93273926 C234.00074251 130.90920421 235.74939682 131.886239 237.49804688 132.86328125 C239.70452169 134.09604855 241.91153034 135.32786098 244.11914062 136.55859375 C245.10849609 137.11160156 246.09785156 137.66460937 247.1171875 138.234375 C247.98972168 138.72131836 248.86225586 139.20826172 249.76123047 139.70996094 C251.54790094 140.73948839 253.28425698 141.85617132 255 143 C255 143.66 255 144.32 255 145 C254.47842819 145.26593964 253.95685638 145.53187927 253.41947937 145.80587769 C247.88477647 148.62822729 242.35096786 151.45232486 236.81762695 154.27734375 C234.76511159 155.32497346 232.71238455 156.37218859 230.65942383 157.41894531 C219.65170531 163.03188522 208.66364363 168.67591298 197.73890686 174.44889832 C190.60829821 178.21517822 183.44249308 181.91066436 176.26647949 185.58953857 C172.49681248 187.52229067 168.72898952 189.45863304 164.9609375 191.39453125 C164.20413696 191.78326416 163.44733643 192.17199707 162.66760254 192.57250977 C151.85810584 198.12602334 141.06357794 203.70840552 130.27490234 209.30224609 C128.14283119 210.40754077 126.01036435 211.51207261 123.87744141 212.61572266 C113.8149799 217.8238167 103.79558611 223.08858795 93.875 228.5625 C83.05382786 234.52859909 72.0532433 240.13219375 61.04962158 245.75131226 C51.72105659 250.51742631 42.42857906 255.32393317 33.25 260.375 C32.41259277 260.82584961 31.57518555 261.27669922 30.71240234 261.74121094 C25.93794773 264.32154664 21.29474602 267.04162878 16.6796875 269.8984375 C-0.09547801 279.97780183 -0.09547801 279.97780183 -6.046875 278.59765625 C-9.49049072 276.87960779 -12.37176388 274.96742835 -15.4609375 272.69970703 C-20.37997019 269.40679303 -25.78352699 266.92190347 -31.07250977 264.28106689 C-34.50194274 262.55829387 -37.90770086 260.79037517 -41.3125 259.01953125 C-41.9782605 258.67351868 -42.644021 258.3275061 -43.32995605 257.9710083 C-49.8425731 254.57674282 -56.28392979 251.05766062 -62.71337891 247.50878906 C-70.24042919 243.37121006 -77.86106565 239.42528877 -85.5 235.5 C-94.99033765 230.62315766 -104.40899677 225.6397841 -113.75390625 220.48828125 C-120.94259026 216.54031088 -128.20937163 212.75587131 -135.5 209 C-143.68152923 204.78516839 -151.81511705 200.50561526 -159.875 196.0625 C-168.96185446 191.05463354 -178.15645103 186.2736129 -187.38372803 181.53201294 C-196.1865882 177.00581295 -204.91298809 172.36169067 -213.578125 167.57617188 C-218.8792411 164.66291058 -224.21674903 161.83238999 -229.59375 159.0625 C-230.57577393 158.55662354 -230.57577393 158.55662354 -231.57763672 158.04052734 C-234.80881481 156.37843795 -238.04320128 154.72288006 -241.28125 153.07421875 C-242.46876045 152.46616625 -243.65626092 151.85809423 -244.84375 151.25 C-245.88724609 150.71890625 -246.93074219 150.1878125 -248.00585938 149.640625 C-251.14983594 147.91789811 -254.04714357 146.02884833 -257 144 C-254.11159728 140.86423848 -251.28901438 138.84630752 -247.546875 136.8203125 C-246.46535156 136.22863281 -245.38382813 135.63695312 -244.26953125 135.02734375 C-243.6967041 134.71780762 -243.12387695 134.40827148 -242.53369141 134.08935547 C-239.46727954 132.43149523 -236.41370254 130.75030224 -233.359375 129.0703125 C-232.73703979 128.72856995 -232.11470459 128.38682739 -231.47351074 128.034729 C-225.58781386 124.79335021 -219.78789121 121.41267171 -214 118 C-204.53200403 112.43095993 -194.96711311 107.05875115 -185.35205078 101.74829102 C-176.55893521 96.88504198 -167.82558795 91.92526643 -159.11010742 86.92492676 C-150.85273596 82.18818885 -142.56646701 77.50726952 -134.25 72.875 C-126.15266929 68.3624649 -118.11720282 63.75860996 -110.125 59.0625 C-100.52281393 53.42038573 -90.81779673 47.98597531 -81.06689453 42.60571289 C-72.66146284 37.95534915 -64.35673537 33.15262699 -56.07836914 28.28051758 C-47.29639794 23.13025965 -38.40401776 18.19072468 -29.48193359 13.2890625 C-22.09277412 9.21556537 -14.88639432 4.9542431 -7.8203125 0.34375 C-4.43152136 -1.27085409 -3.53847301 -1.02250992 0 0 Z M-7.90234375 63.0625 C-9.0919873 63.75061768 -9.0919873 63.75061768 -10.30566406 64.45263672 C-11.60842285 65.21858154 -11.60842285 65.21858154 -12.9375 66 C-14.84748438 67.10706741 -16.7576501 68.213822 -18.66796875 69.3203125 C-19.69196777 69.91618164 -20.7159668 70.51205078 -21.77099609 71.12597656 C-26.82655184 74.06007954 -31.90056611 76.96183006 -36.97598267 79.86138916 C-38.76456481 80.88332182 -40.55256982 81.90625955 -42.34057617 82.92919922 C-50.11772175 87.37492165 -57.92471654 91.76442571 -65.75 96.125 C-74.8427631 101.19252244 -83.84723471 106.39437087 -92.82104492 111.66918945 C-100.50425235 116.1683196 -108.2681716 120.51037938 -116.0625 124.8125 C-123.46228798 128.90240832 -130.85713527 132.99118906 -138.125 137.3125 C-138.72836182 137.66739502 -139.33172363 138.02229004 -139.95336914 138.38793945 C-143.01154697 140.16418501 -143.01154697 140.16418501 -145 143 C-144.23671387 143.39155273 -143.47342773 143.78310547 -142.68701172 144.18652344 C-117.03355343 157.36127207 -117.03355343 157.36127207 -105 164 C-96.57411758 168.64756593 -88.05792954 173.1023907 -79.5 177.5 C-70.06569872 182.34794492 -60.70321403 187.30174052 -51.4152832 192.42602539 C-42.35861812 197.39937723 -33.17595528 202.1239815 -23.98242188 206.83789062 C-22.81646484 207.43666016 -21.65050781 208.03542969 -20.44921875 208.65234375 C-19.33853027 209.21937012 -18.2278418 209.78639648 -17.08349609 210.37060547 C-13.65085717 212.18449558 -10.34098369 214.15626024 -7.07348633 216.25219727 C-3.17437432 217.6584118 0.13179511 216.37324062 3.81054688 214.79174805 C4.77025391 214.28683838 5.72996094 213.78192871 6.71875 213.26171875 C7.80333496 212.69557861 8.88791992 212.12943848 10.00537109 211.54614258 C11.15859863 210.93279053 12.31182617 210.31943848 13.5 209.6875 C14.72317343 209.04460135 15.94664797 208.40227528 17.17041016 207.76049805 C25.14482569 203.5666992 33.05040676 199.25088852 40.9387207 194.89770508 C52.49730366 188.56473069 64.26820614 182.63492172 76.00119019 176.63394165 C76.78068024 176.23524872 77.56017029 175.83655579 78.36328125 175.42578125 C79.13012238 175.0336142 79.8969635 174.64144714 80.68704224 174.23739624 C88.39036404 170.29458078 96.04740089 166.26717322 103.69482422 162.21728516 C116.06350478 155.6858044 128.4402496 149.15832923 141 143 C139.75817012 139.27451037 138.85851468 139.0957213 135.4609375 137.3203125 C134.50002197 136.81056885 133.53910645 136.3008252 132.54907227 135.77563477 C131.50162842 135.23092529 130.45418457 134.68621582 129.375 134.125 C127.1617882 132.95104981 124.94957158 131.77522179 122.73828125 130.59765625 C121.60986816 129.99840332 120.48145508 129.39915039 119.31884766 128.78173828 C114.35663358 126.11775135 109.45690026 123.34861555 104.5625 120.5625 C102.65502345 119.47903369 100.74747059 118.39570169 98.83984375 117.3125 C97.8844873 116.76980469 96.92913086 116.22710937 95.94482422 115.66796875 C90.84839502 112.7813161 85.73672022 109.92196169 80.625 107.0625 C79.58609619 106.48121338 78.54719238 105.89992676 77.47680664 105.30102539 C75.37035293 104.12259089 73.26382608 102.94428711 71.15722656 101.76611328 C64.89956662 98.26565612 58.64399537 94.76146633 52.38867188 91.25683594 C47.10779324 88.29855063 41.82512757 85.34354042 36.5390625 82.39453125 C34.40096637 81.20065567 32.26294473 80.00664669 30.125 78.8125 C29.0942334 78.23741699 28.0634668 77.66233398 27.00146484 77.06982422 C22.07863827 74.31539488 17.17640202 71.53315386 12.3125 68.67578125 C10.99354736 67.9017395 10.99354736 67.9017395 9.64794922 67.11206055 C8.01055568 66.14695855 6.37654037 65.17609324 4.74658203 64.19848633 C4.02841309 63.77462646 3.31024414 63.3507666 2.5703125 62.9140625 C1.94914551 62.5423291 1.32797852 62.1705957 0.68798828 61.78759766 C-2.76368671 60.17708225 -4.86091853 61.28473283 -7.90234375 63.0625 Z " fill="#8f55e1" transform="translate(257,1)"/>
<path d="M0 0 C4.16101176 1.38700392 7.48045674 2.63079058 11.28125 4.6171875 C12.27560059 5.13498779 13.26995117 5.65278809 14.29443359 6.1862793 C15.35227051 6.74355713 16.41010742 7.30083496 17.5 7.875 C18.61584473 8.45870361 19.73168945 9.04240723 20.88134766 9.64379883 C27.75389628 13.25181367 34.57772942 16.94007719 41.375 20.6875 C51.05089361 26.02054107 60.85605242 31.08687189 70.6875 36.125 C71.45496552 36.5183252 72.22243103 36.91165039 73.01315308 37.31689453 C76.01727994 38.85626287 79.02150419 40.3954409 82.02589417 41.93429565 C92.50017592 47.30210172 102.90521773 52.79411336 113.26953125 58.37109375 C115.59624372 59.62260184 117.92304935 60.87393499 120.25 62.125 C120.83725861 62.44090088 121.42451721 62.75680176 122.02957153 63.08227539 C132.25209472 68.57683588 142.5496486 73.91609912 152.87530518 79.21377563 C160.85147294 83.30849866 168.78006673 87.47001366 176.625 91.8125 C187.26818571 97.70129101 198.09754691 103.21549318 208.93243408 108.74032593 C219.60068662 114.18154746 230.20135118 119.69936856 240.61914062 125.61132812 C241.40482422 126.05154297 242.19050781 126.49175781 243 126.9453125 C243.66 127.32187988 244.32 127.69844727 245 128.08642578 C248.20537016 129.55059755 250.73156913 130.4227145 254.15527344 129.28173828 C254.88262695 128.88196777 255.60998047 128.48219727 256.359375 128.0703125 C257.21080078 127.61333984 258.06222656 127.15636719 258.93945312 126.68554688 C259.86693359 126.17056641 260.79441406 125.65558594 261.75 125.125 C263.81686381 124.01145188 265.88462715 122.89957232 267.953125 121.7890625 C269.07783203 121.18094727 270.20253906 120.57283203 271.36132812 119.94628906 C277.31747168 116.74436332 283.34541299 113.67963748 289.36315918 110.59564209 C292.93176746 108.76587667 296.49724521 106.93003904 300.0625 105.09375 C300.7521283 104.73860321 301.44175659 104.38345642 302.15228271 104.01754761 C307.94556388 101.0321271 313.72562169 98.02181947 319.5 95 C328.73048547 90.17017279 337.98683369 85.39173094 347.25 80.625 C360.75669059 73.67436986 374.2488353 66.69641305 387.73046875 59.69726562 C402.60641065 51.9749278 417.48728019 44.26210601 432.375 36.5625 C433.27523895 36.09691177 433.27523895 36.09691177 434.19366455 35.62191772 C440.31169371 32.45788317 446.4300565 29.29449446 452.54881287 26.13186646 C454.39564233 25.17722609 456.24238462 24.22241726 458.08911133 23.26757812 C460.5079011 22.01696095 462.92705237 20.76704689 465.34643555 19.51757812 C471.34338502 16.41899623 477.332162 13.30591018 483.30859375 10.16796875 C484.46713867 9.56098145 485.62568359 8.95399414 486.81933594 8.32861328 C489.01842566 7.17550984 491.21577568 6.01908076 493.41113281 4.85888672 C494.8685791 4.09535889 494.8685791 4.09535889 496.35546875 3.31640625 C497.20778076 2.86724854 498.06009277 2.41809082 498.93823242 1.95532227 C501 1 501 1 503 1 C503 21.13 503 41.26 503 62 C484.6875 71.375 484.6875 71.375 479.04174805 74.26318359 C469.94941351 78.91948685 460.88447181 83.62320353 451.85105896 88.39282227 C444.85140829 92.08631337 437.82119387 95.718281 430.78039551 99.33258057 C427.2169669 101.16207005 423.65527231 102.99492783 420.09375 104.828125 C419.39179504 105.18943512 418.68984009 105.55074524 417.96661377 105.92300415 C412.05048711 108.97011696 406.14696146 112.04095694 400.25 115.125 C391.76165755 119.56430554 383.25972841 123.97685647 374.75 128.375 C374.1383197 128.69115265 373.5266394 129.0073053 372.89642334 129.33303833 C371.97872162 129.80735794 371.97872162 129.80735794 371.04248047 130.29125977 C369.80696405 130.9298462 368.57144972 131.56843669 367.3359375 132.20703125 C366.72394501 132.52334 366.11195251 132.83964874 365.48141479 133.1655426 C359.10984986 136.4592052 352.74208626 139.76018872 346.375 143.0625 C344.71645996 143.92270752 344.71645996 143.92270752 343.02441406 144.80029297 C340.79718063 145.95552806 338.56996704 147.11080141 336.34277344 148.26611328 C330.72884391 151.17804196 325.11439439 154.08896774 319.5 157 C317.24999754 158.16666192 314.99999754 159.33332858 312.75 160.5 C308.25 162.83333333 303.75 165.16666667 299.25 167.5 C298.13447754 168.0787085 297.01895508 168.65741699 295.86962891 169.25366211 C293.63848883 170.4099688 291.40640411 171.56445471 289.17333984 172.71704102 C283.88821028 175.44775573 278.61481804 178.1963423 273.37347412 181.01010132 C270.89266224 182.34046752 268.40641804 183.66049221 265.91967773 184.97973633 C264.16305421 185.91719165 262.41442368 186.86957575 260.66601562 187.82226562 C259.60318359 188.38494141 258.54035156 188.94761719 257.4453125 189.52734375 C256.51219238 190.02999756 255.57907227 190.53265137 254.61767578 191.05053711 C250.63191105 192.49622252 248.26001002 191.55969168 244.48657227 189.88354492 C243.60541748 189.42052979 242.7242627 188.95751465 241.81640625 188.48046875 C240.81883301 187.9594458 239.82125977 187.43842285 238.79345703 186.90161133 C237.72724121 186.33595459 236.66102539 185.77029785 235.5625 185.1875 C234.44214355 184.59928467 233.32178711 184.01106934 232.16748047 183.4050293 C224.40228082 179.31377611 216.70156941 175.11180977 209.01586914 170.8737793 C199.50260875 165.66367555 189.83853869 160.75197017 180.1819458 155.81484985 C170.54328809 150.88440668 160.97506986 145.86412321 151.50390625 140.6171875 C142.92850748 135.89749434 134.214532 131.4553572 125.5 127 C115.08727787 121.67643283 104.73469378 116.28494773 94.50390625 110.6171875 C85.92850463 105.89749278 77.21450588 101.45541354 68.5 97 C57.96446516 91.61333452 47.48573167 86.16059702 37.13037109 80.43261719 C24.89337603 73.69108112 12.42321944 67.38908429 0 61 C0 40.87 0 20.74 0 0 Z " fill="#8f55e1" transform="translate(4,305)"/>
<path d="M0 0 C0 20.13 0 40.26 0 61 C-10.98550397 66.78184419 -21.96795765 72.55929556 -33 78.25 C-34.87214593 79.21688146 -36.7441396 80.18405729 -38.61611938 81.15126038 C-39.88347625 81.80606852 -41.15087102 82.46080331 -42.41830444 83.11546326 C-48.82398639 86.42448895 -55.22487558 89.74273938 -61.625 93.0625 C-62.73037109 93.63581055 -63.83574219 94.20912109 -64.97460938 94.79980469 C-67.20217081 95.95519776 -69.42970993 97.11063384 -71.65722656 98.26611328 C-76.14510757 100.59396392 -80.6333294 102.92115699 -85.12158203 105.24829102 C-87.36998396 106.41408693 -89.61835646 107.5799396 -91.86669922 108.74584961 C-97.54087269 111.68824216 -103.2154105 114.6299283 -108.890625 117.5703125 C-119.39263836 123.01229201 -129.89133505 128.46024487 -140.375 133.9375 C-150.83854224 139.40358417 -161.3231599 144.82859768 -171.8104248 150.2489624 C-172.72797546 150.72320648 -172.72797546 150.72320648 -173.6640625 151.20703125 C-174.58209656 151.68151703 -174.58209656 151.68151703 -175.51867676 152.16558838 C-182.99912804 156.03247554 -190.47447554 159.90920206 -197.94921875 163.78710938 C-203.08534519 166.45173902 -208.22185127 169.11561262 -213.36108398 171.77424622 C-215.15267578 172.70114024 -216.94403627 173.62847995 -218.73535156 174.5559082 C-221.04662768 175.75216538 -223.35846119 176.94734633 -225.67089844 178.14135742 C-230.42395146 180.60076962 -235.16617819 183.06983828 -239.8515625 185.65625 C-240.54733398 186.03861816 -241.24310547 186.42098633 -241.95996094 186.81494141 C-243.7052491 187.78103539 -245.442905 188.76088486 -247.1796875 189.7421875 C-250.19606335 191.08744099 -251.74854175 191.2561755 -255 191 C-257.03173828 190.18408203 -257.03173828 190.18408203 -259.0703125 189.0078125 C-259.86630859 188.55921875 -260.66230469 188.110625 -261.48242188 187.6484375 C-262.35447266 187.14570313 -263.22652344 186.64296875 -264.125 186.125 C-274.13231759 180.5049235 -284.27734122 175.21445509 -294.5 170 C-304.96040448 164.65526274 -315.35893729 159.23721746 -325.63671875 153.546875 C-333.83943136 149.03105283 -342.1661404 144.76689314 -350.5 140.5 C-359.68760358 135.79599434 -368.8437762 131.0626799 -377.875 126.0625 C-388.07403693 120.41745165 -398.44235152 115.119543 -408.82025146 109.81375122 C-418.45817308 104.88367283 -428.02564898 99.86372498 -437.49609375 94.6171875 C-447.45979801 89.1334044 -457.60395418 83.99542556 -467.7421875 78.84375 C-479.63215955 72.77788626 -491.26546141 66.40065741 -503 60 C-503 40.53 -503 21.06 -503 1 C-491.14025674 6.61777312 -479.38297354 12.26603797 -467.75 18.3125 C-466.30677081 19.05949637 -464.863409 19.80623656 -463.41992188 20.55273438 C-454.54230021 25.14709009 -445.67813747 29.76734531 -436.82128906 34.40161133 C-428.39950072 38.80404529 -419.95039483 43.15283027 -411.5 47.5 C-401.25681709 52.76944073 -391.02638502 58.06126498 -380.8203125 63.40234375 C-372.39860103 67.8040598 -363.95003966 72.15301298 -355.5 76.5 C-346.15339019 81.30821312 -336.81278928 86.12647658 -327.5 91 C-316.86582395 96.56430461 -306.19824441 102.06293 -295.52246094 107.546875 C-288.68814763 111.05913686 -281.8635058 114.58767337 -275.0625 118.1640625 C-273.2122352 119.13427822 -271.36179699 120.10416261 -269.51135254 121.07403564 C-267.79261008 121.97759936 -266.07740761 122.88788668 -264.36230469 123.79833984 C-263.33008789 124.3392627 -262.29787109 124.88018555 -261.234375 125.4375 C-259.89197754 126.14712891 -259.89197754 126.14712891 -258.52246094 126.87109375 C-255.09994971 128.40280996 -252.41478979 129.45343228 -248.74227905 128.27641296 C-247.59247055 127.67878899 -247.59247055 127.67878899 -246.41943359 127.0690918 C-245.54016205 126.62079514 -244.6608905 126.17249847 -243.75497437 125.71061707 C-242.34098862 124.9624749 -242.34098862 124.9624749 -240.8984375 124.19921875 C-239.90735992 123.68881546 -238.91628235 123.17841217 -237.89517212 122.65254211 C-234.71480223 121.01061698 -231.54498123 119.34937809 -228.375 117.6875 C-226.29492991 116.61005479 -224.21420659 115.53386968 -222.1328125 114.45898438 C-211.94369968 109.1872872 -201.79209984 103.84419055 -191.6446228 98.49290466 C-184.7877907 94.87997676 -177.90341933 91.32207137 -171.00891113 87.78167725 C-167.45799221 85.95810118 -163.90874318 84.13127954 -160.359375 82.3046875 C-159.29296783 81.75598495 -159.29296783 81.75598495 -158.20501709 81.19619751 C-151.54647473 77.76901504 -144.89685145 74.32480674 -138.25 70.875 C-129.00374517 66.07606738 -119.75381803 61.28432661 -110.5 56.5 C-101.16353562 51.67269061 -91.83000874 46.83977989 -82.5 42 C-73.81647986 37.49576506 -65.13072175 32.9958875 -56.44177246 28.50213623 C-54.63461624 27.56747353 -52.82755573 26.63262599 -51.02050781 25.69775391 C-45.36241324 22.77090956 -39.70327293 19.84612439 -34.04122925 16.92692566 C-31.40982687 15.57007308 -28.77895717 14.21218948 -26.14813232 12.85421753 C-24.90332194 12.21203883 -23.65825418 11.57035874 -22.41290283 10.92922974 C-16.10603936 7.68222883 -9.83412211 4.41394478 -3.69824219 0.85205078 C-2 0 -2 0 0 0 Z " fill="#8f55e1" transform="translate(507,197)"/>
</svg>
