<svg xmlns="http://www.w3.org/2000/svg" viewBox="-0.03 0 123.4 20">
  <g fill="none" fill-rule="evenodd">
    <path fill="#994ffa" d="M1.9002 10.0953c1.05 0 1.9.851 1.9 1.9 0 1.05-.85 1.901-1.9 1.901-1.049 0-1.9-.851-1.9-1.901 0-1.049.851-1.9 1.9-1.9"/>
    <path fill="#bf91fc" d="M1.9002 15.3892c1.05 0 1.9.851 1.9 1.901 0 1.049-.85 1.9-1.9 1.9-1.049 0-1.9-.851-1.9-1.9 0-1.05.851-1.901 1.9-1.901"/>
    <path fill="#994ffa" d="M66.265 15.234c-.752.752-1.707 1.128-2.863 1.128-1.158 0-2.112-.376-2.892-1.128-.752-.781-1.128-1.764-1.128-2.95 0-1.185.376-2.169 1.128-2.921.78-.78 1.734-1.156 2.892-1.156 1.156 0 2.111.376 2.863 1.156.752.752 1.128 1.736 1.128 2.921 0 1.186-.376 2.169-1.128 2.95Zm1.128-8.474c-1.099-1.417-2.661-2.111-4.686-2.111-1.937 0-3.615.752-5.003 2.227-1.359 1.475-2.053 3.268-2.053 5.408 0 2.14.694 3.963 2.053 5.437 1.388 1.475 3.066 2.199 5.003 2.199 2.025 0 3.587-.695 4.686-2.112v1.707h3.73V0h-3.73v6.76Zm9.915 4.245c.434-1.851 1.793-2.921 3.789-2.921 1.706 0 3.152.955 3.585 2.921h-7.374Zm3.789-6.276c-2.228 0-4.079.723-5.496 2.198-1.417 1.446-2.14 3.268-2.14 5.437 0 2.199.723 4.02 2.169 5.467C77.077 19.276 78.985 20 81.386 20c2.776 0 4.887-1.041 6.304-3.095l-3.008-1.735c-.723.954-1.821 1.446-3.238 1.446-2.227 0-3.587-.897-4.078-2.719h10.903c.088-.506.137-1.018.144-1.533 0-2.169-.694-3.962-2.082-5.437-1.359-1.475-3.124-2.198-5.234-2.198Zm16.079 6.103c-1.475-.376-2.632-.81-2.632-1.591 0-.723.722-1.186 1.677-1.186 1.07 0 1.851.492 2.314 1.475l3.181-1.735c-1.128-1.967-3.152-3.066-5.495-3.066-1.561 0-2.863.405-3.933 1.244-1.042.81-1.562 1.938-1.562 3.355 0 3.008 2.69 3.904 4.83 4.454 1.475.376 2.632.809 2.632 1.59 0 .839-.666 1.244-1.996 1.244-1.475 0-2.4-.636-2.834-1.88l-3.239 1.822C91.189 18.843 93.213 20 96.192 20c1.649 0 3.037-.405 4.136-1.186 1.128-.81 1.677-1.967 1.677-3.442.029-3.094-2.719-4.107-4.829-4.54Zm20.389-5.698h-4.454l-4.974 6.363V.053h-3.731v19.542h3.731V13.03l5.264 6.565h4.338l-5.987-7.317 5.813-7.144Zm3.874 3.175c-.887 0-1.607-.72-1.607-1.607 0-.888.72-1.607 1.607-1.607.887.001 1.606.72 1.607 1.607 0 .887-.719 1.607-1.607 1.607Zm0-3.508c-1.049 0-1.901.851-1.901 1.901 0 1.049.852 1.9 1.901 1.9 1.049-.001 1.899-.851 1.9-1.9 0-1.05-.85-1.901-1.9-1.901Zm.267 1.726c-.074.051-.163.078-.253.077h-.341v-.558h.302c.105-.01.211.014.303.067.063.057.094.141.086.225.001.075-.035.146-.097.189Zm.394.655c.019-.191-.091-.372-.269-.445.168-.067.279-.23.28-.411.009-.16-.059-.316-.185-.416-.152-.104-.335-.155-.519-.143h-.603v1.855h.308v-.739h.385c.167.006.263.079.286.219.006.079.008.159.006.239-.004.095.006.189.031.281h.317v-.035c-.03-.087-.042-.179-.037-.271v-.134ZM1.9 4.801c-1.049 0-1.9.851-1.9 1.901 0 1.049.851 1.9 1.9 1.9 1.05 0 1.901-.851 1.901-1.9 0-1.05-.851-1.901-1.901-1.901Zm53.548.333h-4.454l-4.974 6.363V.053h-3.731v19.542h3.731V13.03l5.264 6.565h4.337l-5.986-7.317 5.813-7.144ZM35.139 19.595h3.73V.053h-3.73v19.542Zm-8.265-4.28c-.752.752-1.706 1.127-2.863 1.127s-2.111-.375-2.863-1.127c-.752-.781-1.128-1.765-1.128-2.951 0-1.185.376-2.169 1.128-2.921.752-.78 1.706-1.156 2.863-1.156s2.111.376 2.863 1.156c.781.752 1.157 1.736 1.157 2.921 0 1.186-.376 2.17-1.157 2.951Zm1.157-8.475c-1.128-1.417-2.69-2.111-4.714-2.111-1.938 0-3.587.752-4.975 2.227-1.359 1.475-2.053 3.268-2.053 5.408 0 2.141.694 3.963 2.053 5.437C19.73 19.276 21.379 20 23.317 20c2.024 0 3.586-.695 4.714-2.112v1.707h3.731V5.134h-3.731V6.84ZM11.307 0h-3.73v14.94c0 3.962 1.879 5.437 6.999 4.858v-3.383c-2.141.115-3.269.087-3.269-1.475v-6.3h3.269V5.053h-3.269V0Z"/>
  </g>
</svg>